<svg xmlns="http://www.w3.org/2000/svg" width="100" height="100" style="transform:rotate(-8deg)"><circle cx="42" cy="47" r="44" fill="#1f1249"/><g stroke="#9c79ff" stroke-width="3" stroke-linecap="round" fill="none"><path d="M39.858 14.564c-4.149 20.128-11.217 34.11-21.05 38.105M53.225 80.039l8.799-6.789m0 0-.627 15.988M53.225 84.031l8.172 5.207M43.391 39.763l9.834 24.123M53.225 63.886l11.524-24.123M64.749 38.995c-3.352.768-15.202 1.662-21.358.768M72.431 24.244c19.514 17.977 1.844 38.72-3.38 44.712M94.924 16.581c0 21.723-6.605 36.088-16.767 39.629M48.674 88.066c-2.513.0-4.55-2.304-4.55-5.146s2.037-5.146 4.55-5.146c2.514.0 4.551 2.304 4.551 5.146s-2.037 5.146-4.551 5.146zM11.939 66.202C2.455 49.605 4.995 31.78 15.834 23.524M41.746 11.5l-1.888 3.064M93.908 16.581h1.016M43.957 80.301l-8.798-6.789m0 0V89.5M43.957 84.293 35.159 89.5"/><g fill="#9c79ff"><path d="M43.743 27.754c-.702.0-2.153 3.564-.352 5.185.011.009 1.713.692 2.042-.335.896-2.793-.989-4.85-1.69-4.85"/><path d="M62.277 27.506c-.673.077-1.686 3.758.212 5.163.011.008 1.715.498 1.922-.553.563-2.859-1.462-4.686-2.134-4.61"/></g></g></svg>