<svg xmlns="http://www.w3.org/2000/svg" width="100" height="100" style="transform:rotate(-8deg)"><circle cx="42" cy="47" r="44" fill="#1f1249"/><g stroke="#9c79ff" stroke-width="3" stroke-linecap="round" fill="none"><path d="m52.883 83.401 9.324-7.205m0 0-.653 16.952m-8.668-5.515 8.668 5.515m-13.49-1.234c-2.664.002-4.826-2.439-4.828-5.452m0 0c-.002-3.013 2.156-5.458 4.821-5.459m0 0c2.665-.002 4.826 2.439 4.829 5.452m0 0c.001 3.013-2.157 5.458-4.822 5.459m-5.007-8.229-9.332-7.191m0 0 .011 16.95m9.324-5.526-9.324 5.526m30.372-52.367c-3.082.821-17.181 2.395-22.846 1.46.454 13.487 7.521 22.661 11.759 22.41 4.009-.238 10.052-7.329 11.087-23.87M32.747 15.014c-4.384 21.343-7.394 29.733-15.136 37.003m55.595-27.785c20.702 19.045 1.983 41.05-3.551 47.407"/><path d="M97.048 16.091c.016 23.031-6.977 38.266-17.748 42.028M35.269 10.923l-2.522 4.091m63.224 1.078 1.077-.001M9.101 68.76C-.966 51.17 1.714 32.27 13.2 23.509m28.308 5.263c.744-.001 2.744 2.179 1.796 5.141-.348 1.089-2.153.366-2.165.357-1.911-1.718-.375-5.498.369-5.498m21.916 4.61c.595-3.032-1.553-4.967-2.265-4.886-.714.082-1.785 3.985.228 5.474.012.008 1.819.526 2.037-.588"/></g><path fill="#9c79ff" d="M41.508 28.772c.744-.001 2.744 2.179 1.796 5.141-.348 1.089-2.153.366-2.165.357-1.911-1.718-.375-5.498.369-5.498m21.916 4.61c.595-3.032-1.553-4.967-2.265-4.886-.714.082-1.785 3.985.228 5.474.012.008 1.819.526 2.037-.588"/></svg>