<svg xmlns="http://www.w3.org/2000/svg"><symbol id="github" viewBox="0 0 100 100"><path d="M49.996 10C27.911 10 10 27.908 10 50.001c0 17.673 11.46 32.664 27.355 37.954C39.356 88.323 40.086 87.088 40.086 86.027 40.086 85.079 40.051 82.562 40.032 79.225 28.905 81.641 26.558 73.862 26.558 73.862 24.738 69.241 22.116 68.01 22.116 68.01 18.484 65.53 22.391 65.579 22.391 65.579 26.406 65.862 28.517 69.702 28.517 69.702 32.085 75.814 37.881 74.049 40.159 73.025 40.523 70.441 41.557 68.678 42.698 67.679c-8.881-1.009-18.22-4.442-18.22-19.77.0-4.366 1.559-7.939 4.118-10.733C28.183 36.164 26.811 32.095 28.989 26.59c0 0 3.357-1.076 10.998 4.101C43.177 29.802 46.6 29.36 50.001 29.343 53.4 29.36 56.82 29.802 60.015 30.691c7.637-5.177 10.989-4.101 10.989-4.101C73.187 32.095 71.814 36.164 71.404 37.176 73.968 39.97 75.515 43.543 75.515 47.909c0 15.367-9.354 18.748-18.262 19.738C58.687 68.882 59.966 71.323 59.966 75.055 59.966 80.401 59.917 84.716 59.917 86.027c0 1.071.722000000000001 2.315 2.75 1.925C78.55 82.65 90 67.669 90 50.001 90 27.908 72.089 10 49.996 10"/></symbol><symbol id="pinboard" viewBox="0 0 100 100"><path d="M50 10c22.091.0 40 17.909 40 40 0 22.091-17.909 40-40 40-22.091.0-40-17.909-40-40 0-22.091 17.909-40 40-40zM38.611 22.391l-8.238 7.985-7.959 8.212L22.948 39.765 29.759 39.397 42.163 54.695 40.71 62.876 41.893 63.479l8.964-9.172L72.619 73.55 73.574 72.596 54.332 50.832l9.17-8.962L62.899 40.687 54.718 42.14 39.421 29.736 39.788 22.924 38.611 22.391z"/></symbol><symbol id="mastodon" viewBox="0 0 100 100"><path d="M87.717 27.355c-1.175-8.597-8.787-15.37-17.809-16.683-1.523-.222-7.29-1.029-20.651-1.029h-.1c-13.365.0-16.231.807-17.754 1.029-8.772 1.276-16.782 7.363-18.726 16.061-.935 4.282-1.034 9.031-.861 13.388.247 6.246.296 12.483.872 18.703a86.798 86.798.0 002.08 12.269c1.847 7.453 9.326 13.656 16.654 16.187a45.35 45.35.0 0024.364 1.265 36.025 36.025.0 002.639-.709c1.961-.614 4.263-1.302 5.956-2.509a.188.188.0 00.077-.144v-6.03a.175.175.0 00-.07-.137.184.184.0 00-.152-.033 68.523 68.523.0 01-15.81 1.818c-9.164.0-11.627-4.28-12.335-6.061a18.566 18.566.0 01-1.072-4.779.174.174.0 01.066-.144.182.182.0 01.157-.033 67.253 67.253.0 0015.552 1.817c1.26.0 2.516.0 3.777-.032 5.268-.146 10.822-.411 16.006-1.408.129-.025.258-.046.369-.079 8.177-1.546 15.959-6.396 16.749-18.678.03-.485.103-5.066.103-5.568.005-1.705.559-12.097-.081-18.482zM75.133 58.002h-8.6V37.277c0-4.363-1.847-6.588-5.604-6.588-4.132.0-6.201 2.632-6.201 7.832v11.344h-8.546V38.521c0-5.2-2.073-7.832-6.204-7.832-3.736.0-5.602 2.225-5.605 6.589v20.725h-8.591V36.648c0-4.364 1.132-7.83 3.396-10.399 2.335-2.564 5.398-3.88 9.2-3.88 4.401.0 7.727 1.666 9.943 4.992l2.14 3.535 2.143-3.535c2.216-3.326 5.542-4.992 9.936-4.992 3.797.0 6.861 1.316 9.203 3.88 2.264 2.567 3.396 6.033 3.396 10.399l-.008 21.355z"/></symbol></svg>