<svg xmlns="http://www.w3.org/2000/svg"><symbol id="github" viewBox="0 0 100 100"><path d="M49.996 10C27.911 10 10 27.908 10 50.001 10 67.674 21.46 82.665 37.355 87.955 39.356 88.323 40.086 87.088 40.086 86.027 40.086 85.079 40.051 82.562 40.032 79.225 28.905 81.641 26.558 73.862 26.558 73.862 24.738 69.241 22.116 68.01 22.116 68.01 18.484 65.53 22.391 65.579 22.391 65.579 26.406 65.862 28.517 69.702 28.517 69.702 32.085 75.814 37.881 74.049 40.159 73.025 40.523 70.441 41.557 68.678 42.698 67.679 33.817 66.67 24.478 63.237 24.478 47.909 24.478 43.543 26.037 39.97 28.596 37.176 28.183 36.164 26.811 32.095 28.989 26.59 28.989 26.59 32.346 25.514 39.987 30.691 43.177 29.802 46.6 29.36 50.001 29.343 53.4 29.36 56.82 29.802 60.015 30.691 67.652 25.514 71.004 26.59 71.004 26.59 73.187 32.095 71.814 36.164 71.404 37.176 73.968 39.97 75.515 43.543 75.515 47.909 75.515 63.276 66.161 66.657 57.253 67.647 58.687 68.882 59.966 71.323 59.966 75.055 59.966 80.401 59.917 84.716 59.917 86.027 59.917 87.098 60.639 88.342 62.667 87.952 78.55 82.65 90 67.669 90 50.001 90 27.908 72.089 10 49.996 10"/></symbol><symbol id="pinboard" viewBox="0 0 100 100"><path d="M50 10C72.091 10 90 27.909 90 50 90 72.091 72.091 90 50 90 27.909 90 10 72.091 10 50c0-22.091 17.909-40 40-40zM38.611 22.391 30.373 30.376l-7.959 8.212L22.948 39.765 29.759 39.397 42.163 54.695 40.71 62.876 41.893 63.479 50.857 54.307 72.619 73.55 73.574 72.596 54.332 50.832 63.502 41.87 62.899 40.687 54.718 42.14 39.421 29.736 39.788 22.924 38.611 22.391z"/></symbol><symbol id="twitter" viewBox="0 0 100 100"><path d="M50 10C72.091 10 90 27.909 90 50 90 72.091 72.091 90 50 90 27.909 90 10 72.091 10 50c0-22.091 17.909-40 40-40zM60.46 32.9c-5.32.0-9.64 4.32-9.64 9.64C50.82 43.3 50.9 44.04 51.08 44.74 43.06 44.34 35.96 40.5 31.2 34.66 30.38 36.08 29.9 37.74 29.9 39.5 29.9 42.84 31.6 45.8 34.2 47.52 32.62 47.48 31.14 47.04 29.84 46.32 29.84 46.36 29.84 46.4 29.84 46.44 29.84 51.12 33.16 55 37.58 55.9 36.78 56.12 35.92 56.24 35.04 56.24 34.42 56.24 33.82 56.18 33.22 56.06 34.44 59.9 38 62.68 42.22 62.76 38.92 65.34 34.76 66.88 30.24 66.88 29.46 66.88 28.7 66.84 27.94 66.74 32.16 69.5 37.24 71.1 42.68 71.1 60.42 71.1 70.12 56.4 70.12 43.66 70.12 43.24 70.12 42.82 70.1 42.42 71.98 41.06 73.62 39.36 74.92 37.42 73.2 38.18 71.34 38.7 69.38 38.94 71.38 37.74 72.9 35.86 73.62 33.6 71.76 34.7 69.7 35.5 67.5 35.94 65.74 34.06 63.24 32.9 60.46 32.9z"/></symbol></svg>